<svg width="129" height="52" xmlns="http://www.w3.org/2000/svg">
    <g id="Layer_1">
        <title>Layer 1</title>
        <text xml:space="preserve" text-anchor="start" font-family="Noto Sans JP" font-size="24" id="svg_2" y="191.33333" x="149.99998" stroke-width="0" stroke="#000" fill="#000000"/>
        <text transform="matrix(0.430457 0 0 -1.09671 31.4266 76.6726)" stroke="#000" xml:space="preserve" text-anchor="start" font-family="'Work Sans'" font-size="24" id="svg_4" y="109.91467" x="-189.61247" fill="#000000">Dinosaur</text>
        <text transform="matrix(0.657078 0 0 0.9887 0.261336 0.140966)" stroke="#000" xml:space="preserve" text-anchor="start" font-family="'Work Sans'" font-size="24" id="svg_6" y="22" x="0" fill="#000000">Dinosaur</text>
        <text transform="matrix(0.793246 0 0 0.929898 26.6104 3.4468)" stroke="#000" xml:space="preserve" text-anchor="start" font-family="'Work Sans'" font-size="24" id="svg_7" y="43" x="41.64536" fill="#000000">Factory</text>
        <path id="svg_8" d="m97.40582,7.94803l6.87544,0l2.12456,-6.11147l2.12457,6.11147l6.87543,0l-5.56233,3.77706l2.12467,6.11147l-5.56234,-3.77716l-5.56233,3.77716l2.12467,-6.11147c-1.85411,-1.25902 -3.70822,-2.51804 -5.56234,-3.77706z" stroke="#000" fill="#000000"/>
        <path id="svg_9" d="m97.35083,100.30993l1.90984,0l0.59016,-1.52787l0.59016,1.52787l1.90984,0l-1.54509,0.94426l0.59019,1.52787l-1.54509,-0.94429l-1.54509,0.94429l0.59019,-1.52787l-1.54509,-0.94426z" stroke="#000" fill="#000000"/>
    </g>
</svg>