<svg width="513" height="70" xmlns="http://www.w3.org/2000/svg">
    <g id="Layer_1">
        <title>Layer 1</title>
        <g transform="rotate(-0.156633 266.362 10.7852) matrix(0.395384 0 0 0.332241 227.686 6.13982)" stroke="null" id="svg_3">
            <svg y="-9.4628" x="-0.46768" stroke="null" id="svg_4" height="200" width="200" version="1.1" viewBox="0 0 1024 1024" class="icon"
                 xmlns="http://www.w3.org/2000/svg">
                <path stroke="null" id="svg_5" fill="#FCE3C3" d="m978.76939,137.32462l-387.28985,0l-23.13178,-78.90777l-16.36701,-9.33767l-96.30394,24.45828l-9.81462,16.49444l39.33495,154.88705l-1.14081,-0.87017l-20.20693,4.41033l-24.45707,45.86064l0,12.77831l33.85541,63.46918l-18.63407,51.76373l-15.56237,-14.00164l-20.98487,3.56079l-25.98502,47.38981l-0.0534,12.9652l17.37432,32.25585l-22.60021,31.28859l-9.33767,-15.8767l-21.10744,-2.90786l-35.16007,33.79352l-4.16639,9.78792l0,30.77158l-44.69919,19.01757l0,-25.33209l-20.94846,-11.39598l-45.31693,29.32251l-44.86668,-23.56141l9.89715,-43.32051l-11.50521,-16.48473l-41.085,-5.27201c-5.74047,-16.91921 -18.38163,-71.26797 3.74769,-181.91944l-24.25924,-10.67994c-4.26348,5.81936 -104.14763,144.06148 -80.19786,275.9988c10.60469,58.4132 43.91154,106.31638 99.00426,142.36846c70.70728,46.27084 137.38409,72.70006 196.00483,85.9711l-34.57752,88.02941l7.37522,17.47627l52.74071,22.1633l5.25744,1.06071l74.14063,0l13.57445,-13.57445l0,-43.56809l-9.71146,-13.01253l-30.82984,-9.15077l26.99598,-38.45628c46.71867,-1.2913 82.42972,-11.52706 102.90002,-23.792a80.80346,80.80346 0 0 0 3.38724,3.69308l-60.76523,84.24653l6.00504,20.55888l81.01949,32.10172l5.00137,0.95513l90.19331,0l13.57445,-13.57445l0,-47.39103l-13.57445,-13.57444l-52.03194,0l-1.00731,-0.75488l65.67435,-54.86213a69.01184,69.01184 0 0 0 24.83814,-53.10358c0,-19.09524 -7.82548,-37.13706 -21.58197,-50.17144c18.56246,-13.59266 48.47601,-41.369 69.87715,-90.06467a108.01789,108.01789 0 0 0 35.97805,-16.40221l30.04219,-21.10259c14.51015,-10.19449 31.56286,-15.58422 49.30249,-15.58422l56.11216,0l13.57445,-13.57444l0,-28.66351l-10.90567,-13.30866l-65.47047,-13.12298a112.65881,112.65881 0 0 0 -64.02624,5.83635l-19.65231,7.83762c3.53045,-35.61518 0.38472,-61.89147 -4.87272,-94.66554l227.40628,0l13.57445,-13.57445l0,-264.08095l-13.57445,-13.57445z"/>
                <path stroke="null" id="svg_6" fill="#ED8F27" d="m591.47954,137.32462l-23.13178,-78.90777l-16.36701,-9.33767l-96.30394,24.45828l-9.81462,16.49444l39.33495,154.88705l-1.14081,-0.87017l-20.20693,4.41033l-24.45707,45.86064l0,12.77831l33.85541,63.46918l-18.63407,51.76373l-15.56237,-14.00164l-20.98487,3.56079l-25.98502,47.38981l-0.0534,12.9652l17.37432,32.25585l-22.60021,31.28859l-9.33767,-15.8767l-21.10744,-2.90786l-35.16007,33.79352l-4.16639,9.78792l0,30.77158l-44.69919,19.01757l0,-25.33209l-20.94846,-11.39598l-45.31693,29.32251l-44.86668,-23.56141l9.89715,-43.32051l-11.50521,-16.48473l-41.085,-5.27201c-5.74047,-16.91921 -18.38163,-71.26797 3.74769,-181.91944l-24.25924,-10.67994c-2.09473,2.85931 -27.26055,37.6832 -49.48818,88.00514c-18.80519,85.82182 1.02552,203.79633 52.0101,256.77248c50.98943,52.981 159.99765,108.84801 318.01101,49.0185c189.40511,-71.71581 155.24508,-190.35053 192.61395,-245.9202c42.44548,-63.11724 110.80681,-52.31351 110.80681,-52.31351l69.3298,11.25884l187.49122,0l13.57445,-13.57444l0,-264.07974l-13.57445,-13.57445l-387.28985,0z"/>
                <path stroke="null" id="svg_7" fill="#300604" d="m645.51519,954.80127l-90.19332,0l-5.00136,-0.95513l-81.0207,-32.10172l-6.00504,-20.55888l60.76522,-84.24653c-15.91554,-16.23473 -19.51517,-34.80569 -43.18094,-34.80569l0,-27.14768c45.43222,0 65.79693,46.00263 70.98398,52.04287l0.71119,16.78692l-57.06123,79.11045l62.39998,24.7277l74.02898,0l0,-20.24212l-42.98433,0l-8.14345,-2.71247l-18.34644,-13.75527l-0.55706,-21.27979l78.83738,-65.85639a41.9309,41.9309 0 0 0 15.09027,-32.26435a41.9309,41.9309 0 0 0 -15.09027,-32.2607l-2.47459,-2.7161l-49.48089,-53.85846l22.34899,-15.40339l48.48693,52.41303c14.86939,13.13754 23.35751,31.91603 23.35751,51.82684a69.01184,69.01184 0 0 1 -24.83814,53.10357l-65.67435,54.86213l1.00731,0.75488l52.03437,0l13.57445,13.57445l0,47.39102l-13.57445,13.57081zm-227.7728,0l-74.14063,0l-5.25744,-1.06072l-52.74071,-22.16451l-7.37522,-17.47506l40.49275,-103.08813l25.26534,9.92507l-35.6443,90.74551l37.9951,15.96894l57.83188,0l0,-19.86226l-39.20752,-11.63871l-7.24658,-20.81132l42.03891,-59.8817l22.21792,15.59757l-31.19635,44.43826l30.82984,9.15077l9.71146,13.01375l0,43.56809l-13.57445,13.57445z"/>
                <path stroke="null" id="svg_8" fill="#300604" d="m407.81369,837.18478c-75.90404,0.00485 -178.3453,-23.35752 -291.01261,-97.08673c-55.0915,-36.05208 -88.39835,-83.95526 -99.00426,-142.36847c-23.94977,-131.9361 75.93438,-270.17822 80.19786,-275.99758l24.25924,10.67994c-22.12811,110.65147 -9.48694,165.00145 -3.74769,181.91944l41.085,5.27201l11.50521,16.48473l-9.89715,43.32051l44.86668,23.56141l45.31693,-29.32251l20.94846,11.39598l0,25.33209l44.69919,-19.01757l0,-30.77158l4.16639,-9.78792l35.16007,-33.79352l21.10744,2.90786l9.33767,15.8767l22.60021,-31.28859l-17.37432,-32.25585l0.0534,-12.9652l25.98502,-47.38981l20.98487,-3.56079l15.56237,14.00164l18.63407,-51.76373l-33.85541,-63.46918l0,-12.77831l24.45707,-45.86064l20.20693,-4.41033l1.14081,0.87017l-39.33495,-154.88705l9.81462,-16.49444l96.30394,-24.45828l16.36701,9.33767l23.13178,78.90777l387.28985,0l13.57445,13.57445l0,264.07974l-13.57445,13.57444l-227.40507,0c6.4201,40.02915 9.69933,70.35533 1.50126,119.85321l-26.47169,4.19552c8.58158,-51.81713 3.06199,-91.93851 -4.44552,-135.30757l13.37541,-15.89005l229.87238,0l0,-236.93206l-383.88319,0l-13.0271,-9.75637l-22.30894,-76.10307l-70.4597,17.89133l45.57301,179.46305l-21.38173,14.14l-19.41079,-14.79414l-13.53925,25.39398l33.28136,62.39998l0.79129,10.98456l-27.5142,76.4344l-21.85019,5.49167l-17.83307,-16.04904l-14.20189,25.89401l17.90831,33.24981l-0.94905,14.38636l-39.74637,55.03447l-22.70337,-1.06921l-11.16176,-18.97389l-18.59766,17.87313l0,33.96706l-8.25875,12.49068l-71.84808,30.57254l-18.89015,-12.49067l0,-20.90963l-31.02765,20.07465l-13.68489,0.62259l-61.14509,-32.1005l-6.92376,-15.04052l8.89469,-38.92474l-34.08114,-4.37028l-10.11439,-6.82667c-1.06071,-1.89083 -21.59411,-40.09104 -12.04528,-136.82703c-25.44253,50.31951 -53.41184,125.6131 -40.5328,196.37377c9.23936,50.75763 38.55823,92.61087 87.13982,124.40189c200.76954,131.38876 359.51108,89.94695 381.95716,67.49966l19.19477,19.19476c-16.8464,16.84882 -61.69608,33.11025 -125.00264,33.11389z"/>
                <path stroke="null" id="svg_9" fill="#300604" d="m644.45933,732.01649l-11.7625,-24.47042l5.88125,12.23582l-5.93343,-12.20912c0.46724,-0.22937 46.79755,-23.60388 74.94891,-89.86563l24.98256,10.61319c-32.37599,76.2123 -85.85944,102.60996 -88.11679,103.69616zm171.73466,-459.1525l157.69297,0l0,27.14768l-157.69297,0l0,-27.14768z"/>
                <path stroke="null" id="svg_10" fill="#300604" d="m705.12746,634.53412a107.9475,107.9475 0 0 1 -36.82031,-6.46865l-17.76147,-3.66031l6.98201,-26.23746l19.57221,4.2028a80.92118,80.92118 0 0 0 74.55569,-9.68597l30.03855,-21.1026c19.10617,-13.4191 41.55347,-20.51641 64.90977,-20.51641l42.53893,0l0,-3.96856l-54.566,-10.93602a85.58638,85.58638 0 0 0 -48.63135,4.43217l-68.90504,27.47901l-7.43227,0.75123c-2.56682,-0.45996 -26.96199,12.94579 -76.96353,-66.97779l23.01284,-14.39607c37.22202,59.48848 43.01953,50.26247 55.36093,53.80141l64.87093,-25.87094c20.37806,-8.13011 42.50617,-10.14473 64.02625,-5.83635l65.47046,13.12298l10.90568,13.30866l0,28.66351l-13.57445,13.57445l-56.11217,0c-17.74084,0 -34.79233,5.39094 -49.30249,15.58543l-30.04219,21.10259a108.09435,108.09435 0 0 1 -62.13298,19.63289z"/>
                <path stroke="null" id="svg_11" fill="#300604" d="m803.04431,936.3723l40.04978,-98.82101l25.15854,10.19692l-40.04735,98.82101l-25.16097,-10.19692zm81.95641,6.8473l-25.15975,-10.19692l16.63158,-41.04131l25.16097,10.19692l-16.6328,41.04131z"/>
                <path stroke="null" id="svg_12" fill="#300604" d="m172.95572,946.49154l-40.04856,-98.82222l25.16097,-10.19691l40.04856,98.821l-25.16097,10.19813zm-73.37847,-44.27927l25.16097,-10.19692l16.63279,41.04253l-25.16097,10.1957l-16.63279,-41.04131z"/>
                <path stroke="null" id="svg_13" fill="#300604" d="m632.64343,201.25377l107.01665,35.25109s-15.76626,62.6245 -80.61292,39.74637c-37.9587,-13.39362 -26.40373,-74.99746 -26.40373,-74.99746z"/>
                <path stroke="null" id="svg_14" fill="#FCE3C3" d="m816.19399,284.13982l26.83457,65.40008l29.18415,-64.31873l-56.01872,-1.08135z"/>
                <path stroke="null" id="svg_15" fill="#300604" d="m852.97425,354.05217l-20.05037,-0.36773l-26.83336,-65.40007l10.31586,-15.066l56.01871,1.08134l9.73453,15.43373l-29.18537,64.31873zm-20.36106,-58.6705l10.92024,26.61369l11.87536,-26.17314l-22.7956,-0.44055z"/>
                <path stroke="null" id="svg_16" fill="#B12800" d="m502.79366,-709.20195s0.31898,0.3222 1.03198,0.36624s0.9081,-0.26589 0.9081,-0.26589l1.13685,-1.90576l-1.36211,-1.95321l-1.39548,0.60777l-0.9087,1.7912l0.58936,1.35965z"/>
                <path stroke="null" id="svg_17" fill="#B12800" d="m502.79366,-709.20195c-0.32049,-0.79831 -0.09908,-1.23228 0.21688,-1.62149c0.33894,-0.4462 0.44406,-0.88735 0.44406,-0.88735s0.23291,0.32577 0.10483,0.8239c0.45647,-0.45838 0.58193,-1.22915 0.5417,-1.52357c0.92754,0.73848 1.26192,2.25776 0.63261,3.30882c3.09121,-1.52186 0.99896,-4.20065 0.62796,-4.49606c0.11777,0.29922 0.10721,0.78513 -0.1786,1.00103c-0.3406,-1.73375 -1.42539,-2.13161 -1.42539,-2.13161c0.08185,0.88088 -0.57785,1.79382 -1.20383,2.47527c0.00214,-0.35021 -0.00286,-0.58404 -0.17519,-0.94504c-0.07829,0.63745 -0.59412,1.11162 -0.76938,1.74307c-0.22835,0.8618 0.04353,1.50143 1.18435,2.25303z"/>
                <path stroke="null" id="svg_18" fill="#B12800" d="m314.76713,-86.02222s4.42126,4.46616 14.30263,5.0754c9.88258,0.61046 12.58655,-3.68579 12.58655,-3.68579l15.75655,-26.41344l-18.87922,-27.07122l-19.34161,8.4238l-12.59505,24.82601l8.17015,18.84524z"/>
                <path stroke="null" id="svg_19" fill="#B12800" d="m314.76713,-214.02222c-4.44188,-11.06466 -1.37261,-17.07941 3.00616,-22.47399c4.69796,-6.18345 6.15432,-12.29893 6.15432,-12.29893s3.22825,4.51592 1.45271,11.41905c6.32665,-6.35336 8.06579,-17.03572 7.50873,-21.11716c12.85598,10.23575 17.48962,31.29223 8.76726,45.85942c42.84477,-21.09288 13.84509,-58.22145 8.70294,-62.31502c1.63233,4.14697 1.48669,10.8814 -2.47459,13.87421c-4.72102,-24.02987 -19.75547,-29.54339 -19.75547,-29.54339c1.13475,12.20912 -8.00874,24.86242 -16.68498,34.30689c0.03035,-4.85331 -0.04005,-8.09491 -2.42847,-13.0975c-1.08498,8.83523 -8.23448,15.40703 -10.66295,24.15852c-3.16636,11.94575 0.60196,20.8101 16.41434,31.2279z"/>
            </svg>
        </g>
        <text fill="#FFFFFF" stroke="none" x="0" y="42" id="svg_1" font-size="40" font-family="'Noto Sans Display'" text-anchor="start" xml:space="preserve" transform="matrix(1.32454 0 0 1.44364 0.605312 -12.0447)" stroke-width="0" font-weight="normal">Dinosaur</text>
        <text fill="#FFFFFF" stroke="none" x="372.53468" y="44.34983" id="svg_2" font-size="40" font-family="'Noto Sans Display'" text-anchor="start" xml:space="preserve" transform="matrix(1.0688 0 0 1.27669 -69.7977 -6.75622)" stroke-width="0">Factory</text>
    </g>
</svg>
