<svg width="27" height="20" viewBox="0 0 27 20" fill="none" xmlns="http://www.w3.org/2000/svg">
<path d="M1.62321 3.24603H25.0786C25.9736 3.24603 26.7014 2.51821 26.7014 1.62321C26.7014 0.728199 25.9736 0 25.0786 0H1.62321C0.728199 0 0 0.728199 0 1.62321C0 2.51821 0.728199 3.24603 1.62321 3.24603Z" fill="white"/>
<path d="M25.0786 8.37679H1.62321C0.728199 8.37679 0 9.10499 0 10C0 10.895 0.728199 11.6228 1.62321 11.6228H25.0786C25.9736 11.6228 26.7014 10.895 26.7014 10C26.7014 9.10499 25.9736 8.37679 25.0786 8.37679Z" fill="white"/>
<path d="M25.0786 16.7536H1.62321C0.728199 16.7536 0 17.4822 0 18.3772C0 19.2722 0.728199 20 1.62321 20H25.0786C25.9736 20 26.7014 19.2722 26.7014 18.3772C26.7014 17.4822 25.9736 16.7536 25.0786 16.7536Z" fill="white"/>
</svg>
